<?xml version="1.0" standalone="no"?>
<!DOCTYPE svg PUBLIC "-//W3C//DTD SVG 20010904//EN"
 "http://www.w3.org/TR/2001/REC-SVG-20010904/DTD/svg10.dtd">
<svg version="1.0" xmlns="http://www.w3.org/2000/svg"
 width="512.000000pt" height="512.000000pt" viewBox="0 0 512.000000 512.000000"
 preserveAspectRatio="xMidYMid meet">
<metadata>
Created by potrace 1.14, written by Peter Selinger 2001-2017
</metadata>
<g transform="translate(0.000000,512.000000) scale(0.100000,-0.100000)"
fill="#000000" stroke="none">
<path d="M2221 5099 c-128 -25 -243 -115 -303 -236 -31 -64 -33 -73 -33 -178
l0 -110 81 -170 c89 -186 120 -262 111 -272 -4 -3 -44 1 -89 8 -106 18 -361
18 -458 0 -125 -22 -239 -59 -347 -112 -180 -88 -247 -173 -242 -306 l2 -65
-49 -27 c-227 -124 -450 -347 -604 -604 -218 -365 -323 -847 -279 -1278 60
-599 365 -1065 894 -1368 98 -56 120 -61 158 -31 l26 20 90 -37 c86 -36 91
-39 91 -69 0 -56 47 -78 295 -139 461 -113 1034 -142 1560 -79 762 91 1343
388 1680 859 265 370 371 897 284 1405 -41 238 -157 569 -214 606 -45 30 -115
-6 -115 -59 0 -10 16 -55 35 -98 126 -287 187 -627 165 -924 -5 -71 -12 -149
-16 -172 l-7 -43 -1622 0 -1623 0 -13 103 c-18 133 -18 570 -1 692 41 288 119
566 222 798 l53 117 47 0 c56 0 63 -7 145 -137 54 -86 183 -221 258 -270 98
-64 216 -64 314 0 81 54 197 176 267 283 36 56 73 107 81 114 11 9 46 11 143
6 212 -12 454 19 641 81 80 27 205 86 232 109 13 12 27 7 103 -38 122 -73 247
-179 344 -291 105 -122 148 -136 188 -62 18 34 18 36 -1 72 -29 53 -224 253
-313 320 -42 32 -109 76 -150 99 l-73 42 -2 78 c-3 95 -25 143 -93 203 -92 81
-304 168 -494 202 -147 27 -453 13 -597 -27 -19 -5 -23 0 -33 38 -60 237 -108
366 -220 595 -102 207 -149 265 -254 314 -96 45 -174 56 -265 38z m197 -175
c28 -14 65 -42 83 -62 42 -47 166 -301 222 -455 41 -112 104 -335 95 -341 -13
-9 -209 -85 -230 -90 -37 -8 -84 4 -213 58 l-110 46 -38 107 c-20 60 -71 178
-113 263 -87 177 -99 231 -70 317 51 153 231 229 374 157z m-423 -940 c117
-20 237 -56 361 -111 105 -46 112 -48 204 -48 91 0 99 2 201 47 216 95 387
131 604 131 222 -1 403 -47 567 -144 79 -46 103 -82 95 -141 -3 -22 -14 -49
-24 -60 -26 -29 -134 -81 -229 -111 -164 -52 -232 -61 -489 -62 -308 -2 -306
-1 -421 -177 -109 -168 -230 -278 -304 -278 -74 0 -195 110 -304 278 -115 176
-113 175 -421 177 -257 1 -325 10 -489 62 -95 30 -203 82 -229 111 -10 11 -21
38 -24 60 -8 59 16 95 95 141 220 131 510 176 807 125z m309 -2896 c-4 -7 -24
-35 -45 -63 -60 -82 -73 -113 -73 -185 0 -99 46 -176 135 -225 l54 -30 185 0
185 0 54 30 c89 49 135 126 135 225 0 73 -16 109 -84 200 l-41 55 962 3 c529
1 965 0 967 -3 14 -14 -124 -192 -233 -301 -385 -385 -993 -600 -1760 -620
l-200 -5 -97 88 c-229 208 -409 443 -541 708 -24 50 -48 100 -51 113 l-7 22
231 0 c182 0 230 -3 224 -12z m308 -6 c16 -9 59 -59 98 -111 59 -79 70 -101
70 -134 0 -29 -7 -45 -29 -68 l-29 -29 -162 0 -162 0 -29 29 c-22 23 -29 39
-29 68 0 33 11 55 70 134 74 99 109 129 150 129 14 0 37 -8 52 -18z"/>
<path d="M1903 2735 c-39 -17 -43 -29 -43 -134 0 -79 2 -90 23 -109 31 -29 77
-29 105 1 19 20 22 35 22 111 0 48 -4 96 -10 106 -15 28 -61 40 -97 25z"/>
<path d="M3153 2735 c-39 -17 -43 -29 -43 -134 0 -79 2 -90 23 -109 31 -29 77
-29 105 1 19 20 22 35 22 111 0 48 -4 96 -10 106 -15 28 -61 40 -97 25z"/>
<path d="M2346 2609 c-19 -15 -26 -29 -26 -56 0 -30 8 -44 44 -78 105 -101
287 -101 392 0 36 34 44 48 44 78 0 27 -7 41 -26 56 -36 29 -65 26 -109 -9
-20 -16 -53 -34 -71 -39 -44 -12 -91 1 -139 39 -44 35 -73 38 -109 9z"/>
<path d="M2102 2037 c-18 -20 -22 -35 -22 -96 0 -63 3 -75 25 -96 30 -31 73
-32 103 -5 28 27 35 58 30 127 -4 43 -10 61 -28 75 -31 25 -82 23 -108 -5z"/>
<path d="M2910 2042 c-18 -14 -24 -32 -28 -75 -5 -69 2 -100 30 -127 30 -27
73 -26 103 5 22 21 25 33 25 98 0 64 -3 76 -23 95 -29 27 -77 29 -107 4z"/>
<path d="M3710 2038 c-16 -18 -20 -35 -20 -95 0 -65 3 -77 25 -98 31 -32 74
-33 103 -2 40 43 41 158 1 198 -27 27 -82 25 -109 -3z"/>
<path d="M4510 2033 c-19 -24 -21 -38 -18 -102 3 -62 7 -76 27 -92 32 -27 77
-24 106 6 22 21 25 33 25 93 0 89 -22 122 -80 122 -30 0 -43 -6 -60 -27z"/>
</g>
</svg>
